<?xml version="1.0" encoding="UTF-8"?>
<!DOCTYPE svg PUBLIC "-//W3C//DTD SVG 1.1//EN" "http://www.w3.org/Graphics/SVG/1.1/DTD/svg11.dtd">
<svg xmlns="http://www.w3.org/2000/svg" version="1.1" width="512px" height="512px" style="shape-rendering:geometricPrecision; text-rendering:geometricPrecision; image-rendering:optimizeQuality; fill-rule:evenodd; clip-rule:evenodd" xmlns:xlink="http://www.w3.org/1999/xlink">
<g><path style="opacity:0.998" fill="#8fdcc0" d="M 69.5,-0.5 C 122.833,-0.5 176.167,-0.5 229.5,-0.5C 229.5,170.167 229.5,340.833 229.5,511.5C 176.167,511.5 122.833,511.5 69.5,511.5C 62.4329,508.263 57.5996,502.93 55,495.5C 54.3333,335.5 54.3333,175.5 55,15.5C 57.5996,8.07043 62.4329,2.73709 69.5,-0.5 Z"/></g>
<g><path style="opacity:1" fill="#f3fafe" d="M 229.5,-0.5 C 277.833,-0.5 326.167,-0.5 374.5,-0.5C 382.881,2.71947 388.381,8.71947 391,17.5C 391.168,48.0028 391.668,78.3361 392.5,108.5C 391.107,112.51 389.607,116.51 388,120.5C 382.889,105.164 377.389,89.9971 371.5,75C 364.627,70.7688 360.294,72.6021 358.5,80.5C 365.363,101.922 372.53,123.255 380,144.5C 382.532,148.907 386.365,150.574 391.5,149.5C 391.5,164.833 391.5,180.167 391.5,195.5C 350.165,195.333 308.832,195.5 267.5,196C 262.465,199.013 261.298,203.18 264,208.5C 265.255,209.211 266.421,210.044 267.5,211C 308.832,211.5 350.165,211.667 391.5,211.5C 391.5,221.833 391.5,232.167 391.5,242.5C 350.33,242.168 309.33,242.501 268.5,243.5C 262.508,245.712 261.008,249.712 264,255.5C 264.903,256.701 266.069,257.535 267.5,258C 308.832,258.5 350.165,258.667 391.5,258.5C 391.5,284.833 391.5,311.167 391.5,337.5C 350.165,337.333 308.832,337.5 267.5,338C 262.465,341.013 261.298,345.18 264,350.5C 264.903,351.701 266.069,352.535 267.5,353C 308.832,353.5 350.165,353.667 391.5,353.5C 391.5,363.833 391.5,374.167 391.5,384.5C 350.33,384.168 309.33,384.501 268.5,385.5C 262.508,387.712 261.008,391.712 264,397.5C 265.129,399.141 266.629,400.141 268.5,400.5C 309.33,401.499 350.33,401.832 391.5,401.5C 391.667,432.168 391.5,462.835 391,493.5C 388.172,503.164 382.005,509.164 372.5,511.5C 324.833,511.5 277.167,511.5 229.5,511.5C 229.5,340.833 229.5,170.167 229.5,-0.5 Z"/></g>
<g><path style="opacity:0.996" fill="#e3f5fe" d="M 374.5,-0.5 C 396.833,-0.5 419.167,-0.5 441.5,-0.5C 448.567,2.73709 453.4,8.07043 456,15.5C 456.667,175.5 456.667,335.5 456,495.5C 453.4,502.93 448.567,508.263 441.5,511.5C 418.5,511.5 395.5,511.5 372.5,511.5C 382.005,509.164 388.172,503.164 391,493.5C 391.5,462.835 391.667,432.168 391.5,401.5C 350.33,401.832 309.33,401.499 268.5,400.5C 318.501,400.667 368.501,400.5 418.5,400C 423.833,395.333 423.833,390.667 418.5,386C 368.501,385.5 318.501,385.333 268.5,385.5C 309.33,384.501 350.33,384.168 391.5,384.5C 391.5,374.167 391.5,363.833 391.5,353.5C 400.173,353.666 408.84,353.5 417.5,353C 422.535,349.987 423.702,345.82 421,340.5C 419.745,339.789 418.579,338.956 417.5,338C 408.84,337.5 400.173,337.334 391.5,337.5C 391.5,311.167 391.5,284.833 391.5,258.5C 400.94,258.945 410.274,258.445 419.5,257C 422.886,253.627 423.386,249.794 421,245.5C 420.25,244.874 419.416,244.374 418.5,244C 368.501,243.5 318.501,243.333 268.5,243.5C 309.33,242.501 350.33,242.168 391.5,242.5C 391.5,232.167 391.5,221.833 391.5,211.5C 400.173,211.666 408.84,211.5 417.5,211C 422.069,208.459 423.569,204.625 422,199.5C 420.786,197.951 419.286,196.785 417.5,196C 408.84,195.5 400.173,195.334 391.5,195.5C 391.5,180.167 391.5,164.833 391.5,149.5C 393.836,147.996 395.669,145.996 397,143.5C 403.834,122.331 410.667,101.164 417.5,80C 415.709,73.9103 411.709,71.9103 405.5,74C 404.667,74.8333 403.833,75.6667 403,76.5C 399.393,87.1533 395.893,97.82 392.5,108.5C 391.668,78.3361 391.168,48.0028 391,17.5C 388.381,8.71947 382.881,2.71947 374.5,-0.5 Z"/></g>
<g><path style="opacity:1" fill="#fddf7d" d="M 177.5,149.5 C 175.398,141.877 171.065,135.711 164.5,131C 160.678,128.913 157.011,126.747 153.5,124.5C 163.815,115.114 164.149,105.281 154.5,95C 140.899,87.6888 130.732,90.8555 124,104.5C 122.491,112.497 124.658,119.164 130.5,124.5C 124.448,127.622 118.948,131.622 114,136.5C 110.712,140.744 108.212,145.41 106.5,150.5C 94.578,139.978 88.578,126.645 88.5,110.5C 90.627,85.7498 103.294,68.9165 126.5,60C 157.631,53.4818 179.797,64.6485 193,93.5C 199.107,115.219 194.44,134.219 179,150.5C 178.617,149.944 178.117,149.611 177.5,149.5 Z"/></g>
<g><path style="opacity:1" fill="#eabd6d" d="M 305.5,72.5 C 315.221,71.6802 324.221,73.8468 332.5,79C 337.313,83.0414 337.646,87.3747 333.5,92C 331.966,92.923 330.299,93.423 328.5,93.5C 324.752,92.2665 321.086,90.7665 317.5,89C 303.951,86.6918 294.451,91.8584 289,104.5C 286.45,118.927 291.95,128.76 305.5,134C 308.833,134.667 312.167,134.667 315.5,134C 320.938,131.538 326.105,128.705 331,125.5C 338.097,127.364 340.097,131.697 337,138.5C 327.461,148.098 315.961,151.598 302.5,149C 279.812,141.129 270.312,125.295 274,101.5C 279.289,86.0402 289.789,76.3735 305.5,72.5 Z"/></g>
<g><path style="opacity:1" fill="#eabc6c" d="M 392.5,108.5 C 395.893,97.82 399.393,87.1533 403,76.5C 403.833,75.6667 404.667,74.8333 405.5,74C 411.709,71.9103 415.709,73.9103 417.5,80C 410.667,101.164 403.834,122.331 397,143.5C 395.669,145.996 393.836,147.996 391.5,149.5C 386.365,150.574 382.532,148.907 380,144.5C 372.53,123.255 365.363,101.922 358.5,80.5C 360.294,72.6021 364.627,70.7688 371.5,75C 377.389,89.9971 382.889,105.164 388,120.5C 389.607,116.51 391.107,112.51 392.5,108.5 Z"/></g>
<g><path style="opacity:1" fill="#385f7d" d="M 153.5,124.5 C 145.897,129.755 138.231,129.755 130.5,124.5C 124.658,119.164 122.491,112.497 124,104.5C 130.732,90.8555 140.899,87.6888 154.5,95C 164.149,105.281 163.815,115.114 153.5,124.5 Z"/></g>
<g><path style="opacity:1" fill="#417092" d="M 130.5,124.5 C 138.231,129.755 145.897,129.755 153.5,124.5C 157.011,126.747 160.678,128.913 164.5,131C 171.065,135.711 175.398,141.877 177.5,149.5C 174.447,154.388 170.114,157.888 164.5,160C 142.982,168.697 123.649,165.53 106.5,150.5C 108.212,145.41 110.712,140.744 114,136.5C 118.948,131.622 124.448,127.622 130.5,124.5 Z"/></g>
<g><path style="opacity:1" fill="#467496" d="M 391.5,195.5 C 400.173,195.334 408.84,195.5 417.5,196C 419.286,196.785 420.786,197.951 422,199.5C 423.569,204.625 422.069,208.459 417.5,211C 408.84,211.5 400.173,211.666 391.5,211.5C 350.165,211.667 308.832,211.5 267.5,211C 266.421,210.044 265.255,209.211 264,208.5C 261.298,203.18 262.465,199.013 267.5,196C 308.832,195.5 350.165,195.333 391.5,195.5 Z"/></g>
<g><path style="opacity:1" fill="#fddf7d" d="M 95.5,237.5 C 126.835,237.333 158.168,237.5 189.5,238C 192.333,239.5 194.5,241.667 196,244.5C 196.667,253.167 196.667,261.833 196,270.5C 195.214,273.583 193.381,275.749 190.5,277C 158.167,277.667 125.833,277.667 93.5,277C 91.6217,275.457 90.1217,273.624 89,271.5C 88.3333,262.167 88.3333,252.833 89,243.5C 90.4936,240.686 92.6603,238.686 95.5,237.5 Z"/></g>
<g><path style="opacity:1" fill="#407093" d="M 268.5,243.5 C 318.501,243.333 368.501,243.5 418.5,244C 419.416,244.374 420.25,244.874 421,245.5C 423.386,249.794 422.886,253.627 419.5,257C 410.274,258.445 400.94,258.945 391.5,258.5C 350.165,258.667 308.832,258.5 267.5,258C 266.069,257.535 264.903,256.701 264,255.5C 261.008,249.712 262.508,245.712 268.5,243.5 Z"/></g>
<g><path style="opacity:1" fill="#407093" d="M 267.5,290.5 C 293.169,290.333 318.835,290.5 344.5,291C 351.616,294.598 352.282,299.264 346.5,305C 319.833,305.667 293.167,305.667 266.5,305C 261.003,299.683 261.336,294.85 267.5,290.5 Z"/></g>
<g><path style="opacity:1" fill="#fddf7d" d="M 94.5,319.5 C 126.168,319.333 157.835,319.5 189.5,320C 192.333,321.5 194.5,323.667 196,326.5C 196.667,335.167 196.667,343.833 196,352.5C 195.214,355.583 193.381,357.749 190.5,359C 158.167,359.667 125.833,359.667 93.5,359C 91.6217,357.457 90.1217,355.624 89,353.5C 88.3333,344.167 88.3333,334.833 89,325.5C 90.3597,322.977 92.193,320.977 94.5,319.5 Z"/></g>
<g><path style="opacity:1" fill="#467496" d="M 391.5,337.5 C 400.173,337.334 408.84,337.5 417.5,338C 418.579,338.956 419.745,339.789 421,340.5C 423.702,345.82 422.535,349.987 417.5,353C 408.84,353.5 400.173,353.666 391.5,353.5C 350.165,353.667 308.832,353.5 267.5,353C 266.069,352.535 264.903,351.701 264,350.5C 261.298,345.18 262.465,341.013 267.5,338C 308.832,337.5 350.165,337.333 391.5,337.5 Z"/></g>
<g><path style="opacity:1" fill="#407093" d="M 268.5,385.5 C 318.501,385.333 368.501,385.5 418.5,386C 423.833,390.667 423.833,395.333 418.5,400C 368.501,400.5 318.501,400.667 268.5,400.5C 266.629,400.141 265.129,399.141 264,397.5C 261.008,391.712 262.508,387.712 268.5,385.5 Z"/></g>
<g><path style="opacity:1" fill="#fedf7d" d="M 94.5,401.5 C 126.168,401.333 157.835,401.5 189.5,402C 192.667,403.167 194.833,405.333 196,408.5C 196.667,417.167 196.667,425.833 196,434.5C 195.214,437.583 193.381,439.749 190.5,441C 158.167,441.667 125.833,441.667 93.5,441C 91.1898,439.363 89.6898,437.196 89,434.5C 88.3333,425.5 88.3333,416.5 89,407.5C 90.3597,404.977 92.193,402.977 94.5,401.5 Z"/></g>
<g><path style="opacity:1" fill="#467496" d="M 268.5,433.5 C 293.836,433.333 319.169,433.5 344.5,434C 350.984,437.081 352.151,441.581 348,447.5C 346.933,448.191 345.766,448.691 344.5,449C 318.833,449.667 293.167,449.667 267.5,449C 263.139,446.774 261.639,443.274 263,438.5C 264.406,436.256 266.239,434.59 268.5,433.5 Z"/></g>
</svg>
